<svg width="20" height="20" viewBox="0 0 20 20" fill="none" xmlns="http://www.w3.org/2000/svg">
<path d="M7.96698 13.4448C8.21099 13.5888 8.46447 13.627 8.7274 13.5592C8.98943 13.4917 9.19244 13.3359 9.33644 13.0919L10.9629 10.336L11.2805 11.5685C11.3452 11.8196 11.4996 12.0171 11.7436 12.1611C11.9876 12.3051 12.2351 12.3448 12.4862 12.2801C12.7373 12.2154 12.9348 12.061 13.0788 11.817C13.2228 11.573 13.2625 11.3255 13.1978 11.0744L12.2801 7.51379C12.2448 7.37685 12.1876 7.26064 12.1084 7.16517C12.029 7.07028 11.9318 6.98895 11.817 6.92118C11.7022 6.85342 11.584 6.80768 11.4625 6.78398C11.3407 6.76086 11.2113 6.76694 11.0744 6.80224L7.51379 7.71992C7.26272 7.78463 7.06519 7.93898 6.92118 8.18299C6.77718 8.427 6.73753 8.67454 6.80224 8.92561C6.86694 9.17668 7.0213 9.37421 7.26531 9.51822C7.50932 9.66222 7.75686 9.70187 8.00793 9.63716L9.24044 9.31951L7.61403 12.0754C7.47002 12.3194 7.43208 12.5726 7.50018 12.8349C7.56737 13.0975 7.72297 13.3008 7.96698 13.4448ZM4.91746 18.6121C3.72613 17.909 2.74006 17.0221 1.95926 15.9513C1.17812 14.881 0.62872 13.7297 0.311061 12.4971C-0.00659792 11.2646 -0.0821625 9.99114 0.0843661 8.67668C0.250321 7.36187 0.684839 6.1088 1.38792 4.91746C2.09101 3.72613 2.97795 2.74006 4.04874 1.95926C5.11897 1.17812 6.27033 0.628722 7.50285 0.311063C8.73536 -0.00659529 10.009 -0.0824475 11.3238 0.0835066C12.6383 0.250035 13.8912 0.684841 15.0825 1.38793C16.2739 2.09101 17.2601 2.97766 18.0412 4.04788C18.822 5.11868 19.3713 6.27034 19.6889 7.50285C20.0066 8.73537 20.0822 10.0089 19.9156 11.3233C19.7497 12.6381 19.3152 13.8912 18.6121 15.0825C17.909 16.2739 17.022 17.2599 15.9513 18.0407C14.881 18.8219 13.7297 19.3713 12.4971 19.6889C11.2646 20.0066 9.99114 20.0822 8.67668 19.9156C7.36187 19.7497 6.1088 19.3152 4.91746 18.6121ZM5.93397 16.8897C7.84298 18.0163 9.86458 18.3048 11.9988 17.7553C14.1327 17.2048 15.763 15.975 16.8897 14.066C18.0163 12.157 18.3048 10.1354 17.7553 8.00122C17.2048 5.86726 15.975 4.23697 14.066 3.11034C12.157 1.98371 10.1357 1.69535 8.00208 2.24525C5.86755 2.79539 4.23697 4.02496 3.11034 5.93397C1.98371 7.84298 1.69546 9.86475 2.2456 11.9993C2.7955 14.1329 4.02496 15.763 5.93397 16.8897Z" fill="black"/>
</svg>
